<?xml version="1.0" encoding="UTF-8"?>
<svg width="23px" height="20px" viewBox="0 0 23 20" version="1.1" xmlns="http://www.w3.org/2000/svg" xmlns:xlink="http://www.w3.org/1999/xlink">
    <!-- Generator: Sketch 51.1 (57501) - http://www.bohemiancoding.com/sketch -->
    <title>to-top - anticon</title>
    <desc>Created with Sketch.</desc>
    <defs></defs>
    <g id="Landing-Page" stroke="none" stroke-width="1" fill="none" fill-rule="evenodd">
        <g id="Landing-Page-Mobile-Landscape" transform="translate(-531.000000, -3160.000000)" fill="#333333">
            <g id="Footer-#9" transform="translate(0.000000, 3145.000000)">
                <g id="Base-/-Background">
                    <path d="M552.47313,33.1463068 C552.725163,33.1463068 552.939388,33.2345171 553.115811,33.4109405 C553.292235,33.5873638 553.380445,33.8015889 553.380445,34.0536222 C553.380445,34.3056555 553.292235,34.5198805 553.115811,34.6963039 C552.939388,34.8727272 552.725163,34.9609375 552.47313,34.9609375 L531.907315,34.9609375 C531.655282,34.9609375 531.441057,34.8727272 531.264634,34.6963039 C531.08821,34.5198805 531,34.3056555 531,34.0536222 C531,33.8015889 531.08821,33.5873638 531.264634,33.4109405 C531.441057,33.2345171 531.655282,33.1463068 531.907315,33.1463068 L552.47313,33.1463068 Z M537.855271,20.2422664 C537.687249,20.057442 537.603239,19.8432169 537.603239,19.5995847 C537.603239,19.3559525 537.687249,19.1417274 537.855271,18.956903 L541.560142,15.2772352 C541.728165,15.0924108 541.938189,15 542.190223,15 C542.442256,15 542.660681,15.0924108 542.845506,15.2772352 L546.525174,18.956903 C546.693196,19.1249252 546.777206,19.3349498 546.777206,19.5869831 C546.777206,19.8390164 546.688995,20.0532415 546.512572,20.2296648 C546.336149,20.4060881 546.121924,20.4942985 545.86989,20.4942985 C545.617857,20.4942985 545.407832,20.4102886 545.23981,20.2422664 L543.097538,18.0999941 L543.097538,29.4162326 C543.097538,29.6682659 543.009328,29.882491 542.832904,30.0589143 C542.656481,30.2353376 542.442256,30.323548 542.190223,30.323548 C541.938189,30.323548 541.723964,30.2353376 541.547541,30.0589143 C541.371118,29.882491 541.282907,29.6682659 541.282907,29.4162326 L541.282907,18.0999941 L539.140635,20.2422664 C538.95581,20.4102886 538.741585,20.4942985 538.497953,20.4942985 C538.254321,20.4942985 538.040096,20.4102886 537.855271,20.2422664 Z" id="to-top---anticon"></path>
                </g>
            </g>
        </g>
    </g>
</svg>