<?xml version="1.0" encoding="UTF-8"?>
<svg width="50px" height="48px" viewBox="0 0 50 48" version="1.1" xmlns="http://www.w3.org/2000/svg" xmlns:xlink="http://www.w3.org/1999/xlink">
    <!-- Generator: Sketch 51.2 (57519) - http://www.bohemiancoding.com/sketch -->
    <title>packages</title>
    <desc>Created with Sketch.</desc>
    <defs></defs>
    <g id="Landing-Page" stroke="none" stroke-width="1" fill="none" fill-rule="evenodd">
        <g transform="translate(-694.000000, -2611.000000)" fill="#FF9068" fill-rule="nonzero" id="Features-#8">
            <g transform="translate(0.000000, 2267.000000)">
                <g id="Group-8" transform="translate(308.000000, 171.000000)">
                    <g id="packages" transform="translate(386.000000, 173.000000)">
                        <path d="M46.6101695,25.4237288 C46.3853814,25.4237288 46.1699153,25.5131356 46.0110169,25.6720339 L33.0508475,38.6322034 L4.83644068,10.4177966 C4.67754237,10.2588983 4.46207627,10.1694915 4.23728814,10.1694915 L0,10.1694915 L0,11.8644068 L3.88644068,11.8644068 L32.4516949,40.429661 C32.7826271,40.7604873 33.3190678,40.7604873 33.65,40.429661 L46.9610169,27.1186441 L50,27.1186441 L50,25.4237288 L46.6101695,25.4237288 Z" id="Shape"></path>
                        <path d="M44.6669492,23.9771186 L35.3449153,14.6550847 C35.0139831,14.3242585 34.4775424,14.3242585 34.1466102,14.6550847 L23.129661,25.6720339 C22.7988347,26.0029661 22.7988347,26.5394068 23.129661,26.870339 L32.4516949,36.1923729 C32.7826271,36.5231992 33.3190678,36.5231992 33.65,36.1923729 L37.8872881,31.9550847 L40.429661,29.4127119 L44.6669492,25.1754237 C44.9977754,24.8444915 44.9977754,24.3080508 44.6669492,23.9771186 Z M33.0508475,34.3949153 L24.9271186,26.2711864 L27.9661017,23.2322034 L36.0898305,31.3559322 L33.0508475,34.3949153 Z M37.2881356,30.1576271 L29.1644068,22.0338983 L30.5084746,20.6898305 L38.6322034,28.8135593 L37.2881356,30.1576271 Z M39.8305085,27.6152542 L31.7067797,19.4915254 L34.7457627,16.4525424 L42.8694915,24.5762712 L39.8305085,27.6152542 Z" id="Shape"></path>
                        <path d="M33.0508475,40.6779661 C31.1787076,40.6779661 29.6610169,42.1956568 29.6610169,44.0677966 C29.6610169,45.9399364 31.1787076,47.4576271 33.0508475,47.4576271 C34.9229873,47.4576271 36.440678,45.9399364 36.440678,44.0677966 C36.440678,42.1956568 34.9229873,40.6779661 33.0508475,40.6779661 Z M33.0508475,45.7627119 C32.1147246,45.7627119 31.3559322,45.0039195 31.3559322,44.0677966 C31.3559322,43.1316737 32.1147246,42.3728814 33.0508475,42.3728814 C33.9869703,42.3728814 34.7457627,43.1316737 34.7457627,44.0677966 C34.7457627,45.0039195 33.9869703,45.7627119 33.0508475,45.7627119 Z" id="Shape"></path>
                        <path d="M32.8025424,12.1127119 L23.4805085,2.79067797 C23.1495763,2.45985169 22.6131356,2.45985169 22.2822034,2.79067797 L11.2652542,13.8076271 C11.0106992,14.1194915 11.0881356,14.6307203 11.2652542,15.0059322 L20.5872881,24.3279661 C20.9182203,24.6587924 21.454661,24.6587924 21.7855932,24.3279661 L26.0228814,20.090678 L28.5652542,17.5483051 L32.8025424,13.3110169 C33.1333686,12.9800847 33.1333686,12.4436441 32.8025424,12.1127119 Z M21.1864407,22.5305085 L13.0627119,14.4067797 L16.1016949,11.3677966 L24.2254237,19.4915254 L21.1864407,22.5305085 Z M25.4237288,18.2932203 L17.3,10.1694915 L18.6440678,8.82542373 L26.7677966,16.9491525 L25.4237288,18.2932203 Z M27.9661017,15.7508475 L19.8423729,7.62711864 L22.8813559,4.58813559 L31.0050847,12.7118644 L27.9661017,15.7508475 Z" id="Shape"></path>
                        <rect id="Rectangle-path" transform="translate(42.375331, 34.749811) rotate(-45.000000) translate(-42.375331, -34.749811) " x="33.9859514" y="33.9023617" width="16.7787586" height="1.694899"></rect>
                        <rect id="Rectangle-path" x="21.1864407" y="43.220339" width="6.77966102" height="1.69491525"></rect>
                        <rect id="Rectangle-path" x="17.7966102" y="43.220339" width="1.69491525" height="1.69491525"></rect>
                        <rect id="Rectangle-path" x="14.4067797" y="43.220339" width="1.69491525" height="1.69491525"></rect>
                        <rect id="Rectangle-path" x="3.38983051" y="22.8813559" width="6.77966102" height="1.69491525"></rect>
                        <rect id="Rectangle-path" x="0" y="22.8813559" width="1.69491525" height="1.69491525"></rect>
                        <rect id="Rectangle-path" x="16.9491525" y="0" width="5.93220339" height="1.69491525"></rect>
                        <rect id="Rectangle-path" x="13.559322" y="0" width="1.69491525" height="1.69491525"></rect>
                        <rect id="Rectangle-path" x="5.08474576" y="35.5932203" width="11.0169492" height="1.69491525"></rect>
                    </g>
                </g>
            </g>
        </g>
    </g>
</svg>