<?xml version="1.0" encoding="UTF-8"?>
<svg width="50px" height="53px" viewBox="0 0 50 53" version="1.1" xmlns="http://www.w3.org/2000/svg" xmlns:xlink="http://www.w3.org/1999/xlink">
    <!-- Generator: Sketch 51.2 (57519) - http://www.bohemiancoding.com/sketch -->
    <title>discount</title>
    <desc>Created with Sketch.</desc>
    <defs></defs>
    <g id="Landing-Page" stroke="none" stroke-width="1" fill="none" fill-rule="evenodd">
        <g transform="translate(-1082.000000, -2438.000000)" fill="#FF9068" fill-rule="nonzero" id="Features-#8">
            <g transform="translate(0.000000, 2267.000000)">
                <g id="Group-8" transform="translate(308.000000, 171.000000)">
                    <g id="discount" transform="translate(774.000000, 0.000000)">
                        <path d="M47.5567073,26.7919715 C47.3473577,26.3636179 47.3473577,25.8723577 47.5567073,25.4441057 L49.4973577,21.4740854 C50.5778455,19.2636179 49.721748,16.6289634 47.548374,15.475813 L43.6449187,13.4046748 C43.2237805,13.1813008 42.935061,12.7837398 42.8526423,12.3143293 L42.0892276,7.96178862 C41.664126,5.53841463 39.4224593,3.90995935 36.9867886,4.25457317 L32.6114837,4.87347561 C32.1392276,4.94014228 31.6722561,4.78831301 31.3296748,4.45691057 L28.1537602,1.38455285 C26.3853659,-0.326219512 23.6150407,-0.326321138 21.846748,1.38455285 L18.6707317,4.45721545 C18.3280488,4.78871951 17.8610772,4.9402439 17.3889228,4.87378049 L13.0136179,4.25487805 C10.5771341,3.91006098 8.33628049,5.53871951 7.91117886,7.9620935 L7.14776423,12.3144309 C7.06534553,12.7839431 6.77662602,13.1814024 6.35558943,13.404878 L2.45213415,15.4760163 C0.278760163,16.629065 -0.577337398,19.2639228 0.503150407,21.4743902 L2.44369919,25.4443089 C2.65304878,25.8726626 2.65304878,26.3639228 2.44369919,26.7921748 L0.50304878,30.7620935 C-0.577439024,32.972561 0.278658537,35.6072154 2.45203252,36.7603659 L6.3554878,38.8315041 C6.77662602,39.054878 7.06534553,39.452439 7.14776423,39.9218496 L7.91117886,44.2743902 C8.29817073,46.4804878 10.1898374,48.0276423 12.3639228,48.027439 C12.5780488,48.027439 12.7953252,48.0123984 13.0137195,47.9815041 L17.3890244,47.3626016 C17.860874,47.2956301 18.3281504,47.4477642 18.6708333,47.7791667 L21.846748,50.8515244 C22.7310976,51.7070122 23.8654472,52.1346545 25.0002033,52.1345528 C26.1346545,52.1344512 27.2697154,51.7068089 28.1536585,50.8515244 L31.3296748,47.7791667 C31.6723577,47.4477642 32.1394309,47.2963415 32.6114837,47.3626016 L36.9867886,47.9815041 C39.4235772,48.3262195 41.664126,46.6976626 42.0892276,44.2742886 L42.8527439,39.9219512 C42.9351626,39.452439 43.2238821,39.0549797 43.6449187,38.8315041 L47.548374,36.7603659 C49.721748,35.6073171 50.5778455,32.9724593 49.4973577,30.7619919 L47.5567073,26.7919715 Z M46.1417683,34.109248 L42.238313,36.1803862 C40.9938008,36.8408537 40.1402439,38.0154472 39.8968496,39.403252 L39.133435,43.7556911 C38.9896341,44.5756098 38.2316057,45.1263211 37.4071138,45.0099593 L33.0318089,44.3910569 C31.6364837,44.1933943 30.2557927,44.6424797 29.2430894,45.6220528 L26.0670732,48.6943089 C25.4689024,49.2729675 24.5316057,49.2729675 23.9332317,48.6943089 L20.7573171,45.6219512 C19.9014228,44.7940041 18.7825203,44.3453252 17.6144309,44.3453252 C17.4004065,44.3453252 17.1846545,44.3603659 16.9685976,44.3909553 L12.5932927,45.0098577 C11.7695122,45.1263211 11.010874,44.5755081 10.8669715,43.7555894 L10.1034553,39.4030488 C9.85995935,38.0152439 9.00650407,36.8405488 7.76189024,36.1802846 L3.85843496,34.1091463 C3.12306911,33.7190041 2.83343496,32.8276423 3.19898374,32.0797764 L5.13963415,28.1097561 C5.75833333,26.8439024 5.75833333,25.3920732 5.13963415,24.1262195 L3.19898374,20.1561992 C2.83343496,19.4083333 3.12306911,18.5169715 3.85843496,18.1268293 L7.76189024,16.0556911 C9.00640244,15.3952236 9.85995935,14.2206301 10.1033537,12.8328252 L10.8667683,8.48038618 C11.0106707,7.66046748 11.7685976,7.10965447 12.5930894,7.22611789 L16.9683943,7.84502033 C18.3632114,8.04247967 19.7444106,7.59359756 20.7571138,6.61402439 L23.9331301,3.54166667 C24.5313008,2.96300813 25.4685976,2.96300813 26.0669715,3.54166667 L29.2428862,6.61402439 C30.2555894,7.59369919 31.6365854,8.04247967 33.0316057,7.84502033 L37.4069106,7.22611789 C38.2307927,7.10955285 38.9894309,7.66046748 39.1332317,8.48038618 L39.8966463,12.8329268 C40.1401423,14.2207317 40.9935976,15.3954268 42.2382114,16.0556911 L46.1416667,18.1268293 C46.8770325,18.5169715 47.1666667,19.4083333 46.8011179,20.1561992 L44.8604675,24.1261179 C44.2417683,25.3918699 44.2417683,26.8439024 44.8604675,28.1096545 L46.8011179,32.0795732 C47.1667683,32.8276423 46.8771341,33.7191057 46.1417683,34.109248 Z" id="Shape"></path>
                        <path d="M35.9640244,15.154065 C35.3781504,14.5680894 34.4279472,14.5680894 33.8419715,15.154065 L14.0361789,34.9599593 C13.4502033,35.545935 13.4502033,36.4960366 14.0361789,37.0820122 C14.3291667,37.375 14.7132114,37.5215447 15.0971545,37.5215447 C15.4810976,37.5215447 15.8652439,37.3751016 16.1581301,37.0820122 L35.9639228,17.2762195 C36.5501016,16.6901423 36.5501016,15.7401423 35.9640244,15.154065 Z" id="Shape"></path>
                        <path d="M18.9980691,12.6134146 C15.9643293,12.6134146 13.4961382,15.0816057 13.4961382,18.1153455 C13.4961382,21.1490854 15.9643293,23.6172764 18.9980691,23.6172764 C22.0318089,23.6172764 24.5,21.1490854 24.5,18.1153455 C24.5,15.0816057 22.0318089,12.6134146 18.9980691,12.6134146 Z M18.9980691,20.6161585 C17.6191057,20.6161585 16.4972561,19.4943089 16.4972561,18.1152439 C16.4972561,16.7362805 17.6191057,15.6144309 18.9980691,15.6144309 C20.3770325,15.6144309 21.4989837,16.7362805 21.4989837,18.1152439 C21.4988821,19.4943089 20.3770325,20.6161585 18.9980691,20.6161585 Z" id="Shape"></path>
                        <path d="M31.0021341,28.6189024 C27.9683943,28.6189024 25.5002033,31.0870935 25.5002033,34.1208333 C25.5002033,37.1545732 27.9683943,39.6227642 31.0021341,39.6227642 C34.035874,39.6227642 36.504065,37.1545732 36.504065,34.1208333 C36.504065,31.0870935 34.035874,28.6189024 31.0021341,28.6189024 Z M31.0021341,36.6216463 C29.6231707,36.6216463 28.5012195,35.4997967 28.5012195,34.1208333 C28.5012195,32.7418699 29.6230691,31.6200203 31.0021341,31.6200203 C32.3810976,31.6200203 33.5029472,32.7418699 33.5029472,34.1208333 C33.5029472,35.4997967 32.3810976,36.6216463 31.0021341,36.6216463 Z" id="Shape"></path>
                    </g>
                </g>
            </g>
        </g>
    </g>
</svg>