<?xml version="1.0" encoding="UTF-8"?>
<svg width="45px" height="50px" viewBox="0 0 45 50" version="1.1" xmlns="http://www.w3.org/2000/svg" xmlns:xlink="http://www.w3.org/1999/xlink">
    <!-- Generator: Sketch 51.2 (57519) - http://www.bohemiancoding.com/sketch -->
    <title>staff-people-group-in-a-circular-arrow</title>
    <desc>Created with Sketch.</desc>
    <defs></defs>
    <g id="Landing-Page" stroke="none" stroke-width="1" fill="none" fill-rule="evenodd">
        <g transform="translate(-310.000000, -2611.000000)" fill="#FF9068" fill-rule="nonzero" id="Features-#8">
            <g transform="translate(0.000000, 2267.000000)">
                <g id="Group-8" transform="translate(308.000000, 171.000000)">
                    <g id="staff-people-group-in-a-circular-arrow" transform="translate(1.000000, 173.000000)">
                        <path d="M42.622549,23.8415033 C42.6176471,23.7777778 42.6160131,23.7140523 42.6094771,23.6519608 C42.5555556,21.2336601 42.1339869,19.2794118 40.2320261,18.4738562 C38.2222222,17.622549 36.4509804,17.6111111 35.1519608,18.1160131 C35.0669935,18.1503268 34.8447712,18.4428105 34.7598039,18.496732 C34.6732026,18.5506536 34.2173203,18.3986928 34.0457516,18.4395425 C31.1944444,18.8464052 30.253268,21.5326797 30.4607843,23.627451 C31.1421569,24.8169935 31.3578431,26.3169935 31.4215686,27.8676471 C32.4836601,29.7205882 34.3071895,31.1437908 36.4836601,31.1437908 C39.3905229,31.1437908 41.6928105,28.6895425 42.4101307,26.0179739 C42.6846405,25.9869281 42.9117647,25.7794118 42.9330065,25.495098 L43.0228758,24.4395425 C43.0457516,24.1633987 42.872549,23.9264706 42.622549,23.8415033 Z M36.4787582,30.3267974 C33.4787582,30.3267974 31.2352941,27.1486928 31.2352941,24.3039216 C31.2352941,24.1699346 31.246732,24.0392157 31.2565359,23.9084967 C32.5065359,23.4509804 34.9084967,22.495098 35.1715686,21.9918301 C36.2630719,23.125817 40.119281,23.7630719 41.8137255,23.9771242 C41.8218954,24.0849673 41.8316993,24.1944444 41.8316993,24.3039216 C41.8284314,27.0898693 39.4918301,30.3267974 36.4787582,30.3267974 Z" id="Shape"></path>
                        <path d="M3.98856209,24.4150327 L4.07843137,25.4705882 C4.10457516,25.7679739 4.3496732,25.9820261 4.64052288,25.998366 C5.34150327,28.6764706 7.60457516,31.1421569 10.4722222,31.1421569 C12.7222222,31.1421569 14.5980392,29.6683007 15.6699346,27.7679739 C15.6470588,26.4395425 15.996732,25.0751634 16.754902,23.9460784 C16.7075163,23.9117647 16.6732026,23.8611111 16.6160131,23.8415033 C16.6111111,23.7777778 16.6094771,23.7140523 16.6029412,23.6519608 C16.5490196,21.2336601 16.127451,19.2794118 14.2254902,18.4738562 C12.2156863,17.622549 10.4444444,17.6111111 9.14542484,18.1160131 C9.06045752,18.1503268 8.83986928,18.4428105 8.75326797,18.496732 C8.66666667,18.5506536 8.21078431,18.3986928 8.03921569,18.4395425 C5.1879085,18.8464052 4.24673203,21.5343137 4.45424837,23.629085 C4.44771242,23.6879085 4.44444444,23.746732 4.43954248,23.8055556 C4.16013072,23.872549 3.9624183,24.125817 3.98856209,24.4150327 Z M5.24673203,23.9101307 C6.49673203,23.4526144 8.89869281,22.496732 9.16013072,21.9934641 C10.251634,23.127451 14.1094771,23.7647059 15.8039216,23.9787582 C15.8120915,24.0866013 15.8218954,24.1960784 15.8218954,24.3055556 C15.8218954,27.0898693 13.4852941,30.3284314 10.4738562,30.3284314 C7.47222222,30.3284314 5.23039216,27.1503268 5.23039216,24.3055556 C5.22712418,24.1699346 5.2369281,24.0392157 5.24673203,23.9101307 Z" id="Shape"></path>
                        <path d="M19.3153595,5.36928105 C19.7418301,6.99836601 21.1176471,8.49836601 22.8627451,8.49836601 C24.6323529,8.49836601 26.0294118,7.00490196 26.4689542,5.38071895 C26.6372549,5.36111111 26.7745098,5.23529412 26.7875817,5.0620915 L26.8415033,4.41993464 C26.8578431,4.25163399 26.748366,4.10784314 26.5996732,4.05555556 C26.5964052,4.01797386 26.5964052,3.97875817 26.5931373,3.94117647 C26.5588235,2.47058824 26.3022876,1.28267974 25.1454248,0.790849673 C23.9215686,0.272875817 22.8447712,0.264705882 22.0539216,0.573529412 C22.001634,0.594771242 21.8676471,0.772875817 21.8153595,0.805555556 C21.7630719,0.838235294 21.4852941,0.746732026 21.380719,0.77124183 C19.6470588,1.01797386 19.0751634,2.65196078 19.2009804,3.92810458 C19.1960784,3.9624183 19.1944444,4 19.1911765,4.03594771 C19.0228758,4.07679739 18.9035948,4.23039216 18.9183007,4.40686275 L18.9738562,5.04901961 C18.9885621,5.23039216 19.1388889,5.36111111 19.3153595,5.36928105 Z M19.6846405,4.09803922 C20.4444444,3.82026144 21.9052288,3.23856209 22.0653595,2.93137255 C22.7287582,3.62091503 25.0751634,4.00980392 26.1062092,4.13888889 C26.1111111,4.20588235 26.1176471,4.27124183 26.1176471,4.33823529 C26.1176471,6.03104575 24.6944444,8 22.8627451,8 C21.0359477,8 19.6732026,6.06699346 19.6732026,4.33823529 C19.6732026,4.25653595 19.6781046,4.17810458 19.6846405,4.09803922 Z" id="Shape"></path>
                        <path d="M11.3872549,5.25163399 C8.97875817,5.59477124 8.18464052,7.86437908 8.35947712,9.63562092 C8.35457516,9.68464052 8.35130719,9.73529412 8.34640523,9.78431373 C8.1127451,9.84150327 7.94607843,10.0539216 7.96895425,10.2990196 L8.04575163,11.1911765 C8.06699346,11.4428105 8.2745098,11.624183 8.51960784,11.6356209 C9.1127451,13.8970588 11.0228758,15.9803922 13.4460784,15.9803922 C15.9019608,15.9803922 17.8447712,13.9068627 18.4526144,11.6519608 C18.6830065,11.625817 18.874183,11.4493464 18.8954248,11.2091503 L18.9705882,10.3186275 C18.9901961,10.0849673 18.8431373,9.88562092 18.6339869,9.8120915 C18.629085,9.75980392 18.629085,9.70588235 18.622549,9.65196078 C18.5767974,7.60947712 18.2205882,5.95915033 16.6143791,5.27777778 C14.9166667,4.55882353 13.4199346,4.54901961 12.3235294,4.9754902 C12.251634,5.00490196 12.0653595,5.25163399 11.9918301,5.29738562 C11.9183007,5.34313725 11.5343137,5.21568627 11.3872549,5.25163399 Z M12.3366013,8.25326797 C13.2581699,9.21078431 16.5163399,9.75 17.9477124,9.92973856 C17.9542484,10.0212418 17.9624183,10.1127451 17.9624183,10.2058824 C17.9624183,12.5571895 15.9885621,15.2908497 13.4444444,15.2908497 C10.9084967,15.2908497 9.01633987,12.6062092 9.01633987,10.2058824 C9.01633987,10.0931373 9.0245098,9.98202614 9.03267974,9.87254902 C10.0882353,9.4869281 12.1160131,8.67647059 12.3366013,8.25326797 Z" id="Shape"></path>
                        <path d="M27.3921569,11.6356209 C27.9852941,13.8970588 29.8954248,15.9803922 32.3186275,15.9803922 C34.7761438,15.9803922 36.7173203,13.9068627 37.3251634,11.6519608 C37.4852941,11.6339869 37.5996732,11.5294118 37.6781046,11.3970588 L37.7990196,11.3839869 C37.8267974,11.380719 37.875817,11.3627451 37.880719,11.3137255 L37.9575163,10.4248366 C37.9607843,10.3643791 37.9003268,10.3415033 37.8937908,10.3398693 L37.8431373,10.3218954 C37.8627451,10.0882353 37.7156863,9.88888889 37.504902,9.81535948 C37.501634,9.7630719 37.501634,9.70915033 37.495098,9.65522876 C37.4493464,7.6127451 37.0931373,5.9624183 35.4869281,5.28104575 C33.7892157,4.5620915 32.2924837,4.55228758 31.1960784,4.97875817 C31.124183,5.00816993 30.9379085,5.25490196 30.8643791,5.30065359 C30.7924837,5.34477124 30.4084967,5.21895425 30.2614379,5.25326797 C27.8529412,5.59640523 27.0588235,7.86601307 27.2336601,9.6372549 C27.2287582,9.68627451 27.2254902,9.7369281 27.2189542,9.78594771 C26.9852941,9.84313725 26.8202614,10.0555556 26.8431373,10.3006536 L26.9199346,11.1928105 C26.9411765,11.4411765 27.1470588,11.625817 27.3921569,11.6356209 Z M27.9035948,9.87091503 C28.9591503,9.48529412 30.9885621,8.67647059 31.2075163,8.25163399 C32.127451,9.20915033 35.3872549,9.74836601 36.8202614,9.92810458 C36.8267974,10.0196078 36.8349673,10.1111111 36.8349673,10.2042484 C36.8349673,12.5555556 34.8611111,15.2892157 32.3169935,15.2892157 C29.7794118,15.2892157 27.8872549,12.6045752 27.8872549,10.2042484 C27.8921569,10.0931373 27.8970588,9.98039216 27.9035948,9.87091503 Z" id="Shape"></path>
                        <path d="M18.7826797,11.9787582 C18.5,12.8954248 17.9820261,13.7941176 17.3006536,14.5473856 L22.8480392,14.5506536 L22.8480392,14.5408497 L28.5130719,14.5375817 C27.8480392,13.7875817 27.3415033,12.8905229 27.0637255,11.9771242 C26.7581699,11.8529412 26.5408497,11.5702614 26.5114379,11.2271242 L26.4346405,10.3349673 C26.4052288,10.0065359 26.5588235,9.70098039 26.8202614,9.52124183 C26.7908497,9.20751634 26.8039216,8.88398693 26.8382353,8.56045752 C26.5081699,8.22058824 26.122549,7.98039216 25.6568627,7.91339869 C25.5653595,7.89869281 25.4754902,7.91993464 25.4166667,7.94444444 L23.9558824,9.91993464 L22.8464052,9.03594771 L22.8398693,9.04084967 L22.8398693,9.04575163 L22.8382353,9.04411765 L21.7320261,9.92973856 L20.2712418,7.95424837 C20.2124183,7.93137255 20.122549,7.91013072 20.0326797,7.9248366 C19.6143791,7.98366013 19.2630719,8.1879085 18.9542484,8.47222222 C18.9934641,8.83660131 19.0196078,9.20424837 19.0294118,9.56862745 C19.2679739,9.75163399 19.4035948,10.0457516 19.377451,10.3545752 L19.3022876,11.2434641 C19.2728758,11.5735294 19.0718954,11.8464052 18.7826797,11.9787582 Z" id="Shape"></path>
                        <path d="M42.2957516,26.7385621 C41.8676471,27.8316993 41.1617647,28.8529412 40.2598039,29.6078431 C41.1732026,28.8431373 41.879085,27.8169935 42.2957516,26.7385621 Z" id="Shape"></path>
                        <path d="M8.5,18.0686275 C8.53104575,18.0735294 8.56045752,18.0800654 8.58823529,18.0849673 C8.5996732,18.0718954 8.61111111,18.0588235 8.62418301,18.0441176 C8.76960784,17.8839869 8.86437908,17.7843137 8.99346405,17.7336601 C9.72875817,17.4477124 10.5604575,17.3382353 11.4444444,17.3872549 L9.84640523,15.2254902 C9.76470588,15.1928105 9.64052288,15.1650327 9.51470588,15.1846405 C8.01633987,15.3954248 7.07189542,16.8480392 6.47222222,18.5359477 C6.91503268,18.3039216 7.40196078,18.1160131 7.97875817,18.0326797 L8.11111111,18.0212418 C8.21895425,18.0245098 8.36437908,18.0457516 8.5,18.0686275 Z" id="Shape"></path>
                        <path d="M15.5147059,29.3823529 L15.625817,30.6813725 C15.6568627,31.0490196 15.9591503,31.3153595 16.3169935,31.3316993 C17.1797386,34.625817 19.9640523,37.6633987 23.4934641,37.6633987 C27.0735294,37.6633987 29.9035948,34.6405229 30.7875817,31.3545752 C31.124183,31.3169935 31.4019608,31.0604575 31.4346405,30.7091503 L31.5441176,29.4117647 C31.5751634,29.0735294 31.3611111,28.7810458 31.0522876,28.6764706 C31.0457516,28.5996732 31.0441176,28.5196078 31.0343137,28.4428105 C30.9705882,25.4673203 30.4526144,23.0620915 28.1078431,22.0702614 C25.6356209,21.0228758 23.4558824,21.0081699 21.8578431,21.629085 C21.753268,21.6699346 21.4820261,22.0310458 21.375817,22.0980392 C21.2696078,22.1633987 20.7091503,21.9787582 20.496732,22.0294118 C16.9885621,22.5294118 15.8300654,25.8366013 16.0849673,28.4150327 C16.0784314,28.4869281 16.0718954,28.5588235 16.0669935,28.6323529 C15.7254902,28.7156863 15.4820261,29.0245098 15.5147059,29.3823529 Z M17.0637255,28.7598039 C18.5996732,28.1977124 21.5571895,27.0212418 21.877451,26.4019608 C23.2222222,27.7973856 27.9689542,28.5816993 30.0522876,28.8431373 C30.0620915,28.9771242 30.0751634,29.1111111 30.0751634,29.245098 C30.0751634,32.6732026 27.1993464,36.6552288 23.4934641,36.6552288 C19.7990196,36.6552288 17.0408497,32.7434641 17.0408497,29.245098 C17.0392157,29.0816993 17.0522876,28.9215686 17.0637255,28.7598039 Z" id="Shape"></path>
                        <path d="M14.9656863,17.9575163 L13.4264706,16.7303922 L13.4166667,16.7385621 L13.4166667,16.746732 L13.4150327,16.745098 L12.4281046,17.5310458 C13.0686275,17.6503268 13.7205882,17.8186275 14.3823529,18.0996732 C16.5784314,19.0294118 16.9477124,21.3643791 17.004902,23.5490196 C17.7826797,22.5784314 18.8970588,21.8447712 20.4362745,21.624183 L20.5849673,21.6111111 C20.7140523,21.6111111 20.8872549,21.6388889 21.0490196,21.6683007 C21.0784314,21.6732026 21.1045752,21.6781046 21.1323529,21.6830065 C20.7320261,19.0931373 19.745098,15.5130719 17.3235294,15.1715686 C17.1960784,15.1519608 17.0718954,15.1797386 16.9901961,15.2140523 L14.9656863,17.9575163 Z" id="Shape"></path>
                        <path d="M36.1993464,15.1715686 C36.0718954,15.1519608 35.9493464,15.1797386 35.8676471,15.2140523 L33.8398693,17.9591503 L32.3006536,16.7320261 L32.2908497,16.7401961 L32.2908497,16.748366 L32.2892157,16.746732 L30.75,17.9738562 L28.7205882,15.2287582 C28.6405229,15.1960784 28.5163399,15.1683007 28.3905229,15.1879085 C26.2320261,15.4918301 25.2107843,18.372549 24.7320261,20.8300654 C25.8611111,20.8986928 27.0604575,21.1846405 28.2712418,21.6960784 C29.0277778,22.0163399 29.5980392,22.4705882 30.0408497,23.0163399 C30.0261438,20.8267974 31.1911765,18.4379085 33.9901961,18.0375817 L34.122549,18.0261438 C34.2287582,18.0261438 34.375817,18.0490196 34.5130719,18.0735294 C34.5441176,18.0784314 34.5735294,18.0849673 34.6013072,18.0898693 C34.6127451,18.0767974 34.625817,18.0637255 34.6372549,18.0490196 C34.7810458,17.8888889 34.875817,17.7892157 35.0065359,17.7385621 C36.122549,17.3039216 37.4624183,17.2647059 38.869281,17.6029412 C38.2663399,16.3316993 37.4150327,15.3431373 36.1993464,15.1715686 Z" id="Shape"></path>
                        <path d="M23.4624183,49.8905229 L35.0882353,49.880719 C35.0882353,49.880719 34.7336601,37.2679739 29.1486928,36.4820261 C28.9640523,36.4509804 28.7810458,36.495098 28.6650327,36.5424837 L25.7091503,40.5392157 L23.4656863,38.751634 L23.4526144,38.7614379 L23.4526144,38.7745098 L23.4493464,38.7712418 L21.2058824,40.5604575 L18.25,36.5604575 C18.1323529,36.5130719 17.9509804,36.4722222 17.7663399,36.5 C12.1813725,37.2843137 11.8267974,49.9003268 11.8267974,49.9003268 L23.4607843,49.9068627 L23.4624183,49.8905229 Z" id="Shape"></path>
                        <path d="M36.4542484,41.0816993 L45.9019608,41.0751634 C45.9019608,41.0751634 45.6143791,30.8251634 41.0751634,30.1830065 C40.9248366,30.1601307 40.7777778,30.1928105 40.6830065,30.2320261 L38.2794118,33.4820261 L36.4575163,32.0261438 L36.4460784,32.0359477 L36.4460784,32.0473856 L36.4444444,32.0441176 L34.622549,33.498366 L32.2205882,30.25 C32.1388889,30.2156863 32.0114379,30.2026144 31.8856209,30.2091503 L31.8398693,30.745098 C31.8055556,31.1830065 31.5212418,31.5424837 31.119281,31.6928105 C30.5441176,33.6176471 29.2679739,35.5130719 27.5294118,36.7352941 C27.4689542,37.0343137 27.4183007,37.3251634 27.369281,37.6094771 L28.4068627,36.2075163 L28.5114379,36.1650327 C28.629085,36.1176471 28.9101307,36.0310458 29.2124183,36.0784314 C31.5392157,36.4068627 32.998366,38.5735294 33.9232026,41.0947712 L36.4558824,41.0980392 L36.4558824,41.0816993 L36.4542484,41.0816993 Z" id="Shape"></path>
                        <path d="M0.991830065,41.0915033 L10.4460784,41.0947712 L10.4460784,41.0784314 L13.0065359,41.0784314 C13.9330065,38.5702614 15.3905229,36.4199346 17.7091503,36.0964052 C17.9836601,36.0555556 18.2843137,36.1323529 18.4003268,36.1797386 L18.5081699,36.2222222 L19.5245098,37.5964052 C19.4705882,37.2679739 19.4101307,36.9330065 19.3382353,36.5882353 C17.7222222,35.3627451 16.5326797,33.5408497 15.9885621,31.6830065 C15.5637255,31.5457516 15.2565359,31.1732026 15.2173203,30.7156863 L15.1748366,30.2124183 C15.1372549,30.2058824 15.1062092,30.1879085 15.0669935,30.1813725 C14.9166667,30.1568627 14.7696078,30.1911765 14.6732026,30.2287582 L12.2712418,33.4787582 L10.4493464,32.0245098 L10.4379085,32.0343137 L10.4379085,32.0441176 L10.4362745,32.0408497 L8.61437908,33.495098 L6.2124183,30.245098 C6.11601307,30.2091503 5.96895425,30.1748366 5.81862745,30.1977124 C1.27941176,30.8382353 0.991830065,41.0915033 0.991830065,41.0915033 Z" id="Shape"></path>
                    </g>
                </g>
            </g>
        </g>
    </g>
</svg>