<?xml version="1.0" encoding="UTF-8"?>
<svg width="50px" height="48px" viewBox="0 0 50 48" version="1.1" xmlns="http://www.w3.org/2000/svg" xmlns:xlink="http://www.w3.org/1999/xlink">
    <!-- Generator: Sketch 51.2 (57519) - http://www.bohemiancoding.com/sketch -->
    <title>support</title>
    <desc>Created with Sketch.</desc>
    <defs></defs>
    <g id="Landing-Page" stroke="none" stroke-width="1" fill="none" fill-rule="evenodd">
        <g transform="translate(-694.000000, -2439.000000)" fill="#FF9068" fill-rule="nonzero" id="Features-#8">
            <g transform="translate(0.000000, 2267.000000)">
                <g id="Group-8" transform="translate(308.000000, 171.000000)">
                    <g id="support" transform="translate(386.000000, 1.000000)">
                        <path d="M32.1260047,33.2891253 L32.1260047,32.4191489 C32.3718676,32.2205674 32.6082742,32.0030733 32.8352246,31.7761229 C34.6523641,29.7752955 35.7965721,27.2553191 36.1070922,24.5704492 C37.7401891,24.3216312 39.2121749,23.4464539 40.2111111,22.1307329 C41.5822695,20.1921986 41.7052009,17.4026005 40.5609929,13.9037825 C40.4937352,13.7020095 40.3605201,13.5287234 40.1827423,13.4120567 L39.6626478,13.0621749 C39.7393617,9.90520095 38.6483452,6.83096927 36.598818,4.4286052 C34.0550827,1.56335697 30.1496454,0.116548463 24.9770686,0.0976359338 C19.813948,0.0976359338 15.8990544,1.56335697 13.3553191,4.39078014 C11.305792,6.79314421 10.2147754,9.86737589 10.2914894,13.0243499 L9.7713948,13.3742317 C9.59361702,13.4908983 9.46040189,13.6641844 9.39314421,13.8659574 C8.24893617,17.3836879 8.37186761,20.1543735 9.743026,22.0929078 C10.7381797,23.4178487 12.2101655,24.3030733 13.8470449,24.5609929 C14.1588652,27.2501182 15.3066194,29.7736407 17.1283688,31.7761229 C17.3535461,32.0026005 17.5901891,32.2172577 17.8375887,32.4191489 L17.8375887,33.2891253 C14.2158392,33.9888889 -0.242789598,37.3836879 0.00307328605,47.029078 C0.00307328605,47.5513002 0.426477541,47.9747045 0.948699764,47.9747045 L49.0148936,47.9747045 C49.5371158,47.9747045 49.9605201,47.5513002 49.9605201,47.029078 C50.206383,37.3836879 35.7477541,33.9888889 32.1260047,33.2891253 Z M13.279669,22.4522459 C12.4761229,22.1823877 11.7757683,21.6704492 11.2749409,20.9865248 L11.3222222,20.9959811 C10.3765957,19.6153664 10.2914894,17.5255319 11.1330969,14.7643026 L11.8234043,14.3009456 C12.1138298,14.1070922 12.2737589,13.7690307 12.2394799,13.421513 C12.0803783,10.5952719 12.9996454,7.81382979 14.8115839,5.63900709 C16.9486998,3.21820331 20.3813239,2.00780142 24.9770686,1.98888889 C29.5728132,1.96997636 33.0054374,3.21820331 35.1803783,5.63900709 C36.9923168,7.81382979 37.9115839,10.5952719 37.7524823,13.421513 C37.7182033,13.7690307 37.8781324,14.1070922 38.1685579,14.3009456 L38.8588652,14.7643026 C39.7004728,17.5160757 39.6437352,19.6153664 38.66974,20.9959811 C38.1654846,21.6804965 37.4620567,22.192435 36.6555556,22.4617021 C37.7962175,21.1638298 38.3535461,19.4543735 38.1969267,17.7335697 C38.01974,16.698227 37.4800236,15.7598109 36.6744681,15.0858156 C36.2678487,5.62955083 29.6390071,4.57044917 26.7832151,4.57044917 C26.1787234,4.56867612 25.5749409,4.61300236 24.9770686,4.70283688 C24.3793144,4.61288416 23.7754137,4.56867612 23.170922,4.57044917 C20.3340426,4.57044917 13.7146572,5.6106383 13.279669,15.0858156 C12.4689125,15.7543735 11.9225768,16.6895981 11.7382979,17.7241135 C11.5806147,19.4450355 12.1380615,21.1549645 13.279669,22.4522459 Z M34.7926714,14.6981087 C30.8247045,14.9274232 26.8815603,13.9374704 23.492435,11.8612293 C23.1088652,11.591844 22.5858156,11.644208 22.2631206,11.9841608 C20.3718676,14.0172577 16.920331,14.4900709 15.2560284,14.5940898 C15.7666667,7.90851064 19.813948,6.45224586 23.2182033,6.45224586 C23.7600473,6.44834515 24.301182,6.49267139 24.8352246,6.58463357 C24.9600473,6.61016548 25.0886525,6.61016548 25.2134752,6.58463357 C25.7475177,6.4929078 26.2886525,6.44858156 26.8304965,6.45224586 C30.206383,6.45224586 34.2725768,7.9463357 34.7453901,14.6886525 L34.7926714,14.6981087 Z M15.5869976,22.6319149 L15.6248227,22.6413712 C15.6268322,22.4082742 15.5426714,22.1826241 15.3884161,22.0078014 C14.0929078,20.5231678 13.4971631,19.170922 13.6579196,18.0550827 C13.7349882,17.4335697 14.0419622,16.8634752 14.5184397,16.456974 C15.7666667,16.456974 20.1921986,16.2205674 23.029078,13.7713948 C26.2239953,15.608156 29.8403073,16.5855792 33.5255319,16.6082742 C34.1591017,16.6082742 34.8021277,16.6082742 35.4735225,16.5042553 C35.9369976,16.9 36.2397163,17.4515366 36.3245863,18.0550827 C36.4853428,19.1520095 35.8895981,20.5231678 34.5940898,22.0078014 C34.4398345,22.1826241 34.3556738,22.4082742 34.3576832,22.6413712 C34.3576832,22.6413712 34.3576832,22.8304965 34.3576832,23.1330969 L28.8541371,26.0834515 C27.7619385,25.049409 26.0381797,25.0965721 25.0041371,26.1887707 C23.9700946,27.2809693 24.0172577,29.0047281 25.1094563,30.0387707 C26.2016548,31.0728132 27.9254137,31.0256501 28.9594563,29.9334515 C29.4386525,29.427305 29.7055556,28.7567376 29.7052009,28.0598109 C29.7094563,27.9747045 29.7094563,27.8895981 29.7052009,27.8044917 L34.0456265,25.4782506 C33.6730496,27.3429078 32.7965721,29.06974 31.5113475,30.4711584 C29.8349882,32.0851064 27.5658392,32.9339243 25.241844,32.8163121 L24.7690307,32.8163121 C22.45,32.9314421 20.1858156,32.0867612 18.5089835,30.4806147 C15.5208038,27.5018913 15.5869976,22.6791962 15.5869976,22.6319149 Z M27.813948,28.0598109 C27.813948,28.5245863 27.4371158,28.9014184 26.9723404,28.9014184 C26.507565,28.9014184 26.1307329,28.5245863 26.1307329,28.0598109 C26.1307329,27.5950355 26.507565,27.2182033 26.9723404,27.2182033 C27.4371158,27.2182033 27.813948,27.5950355 27.813948,28.0598109 Z M24.0314421,46.0267139 L1.92269504,46.0267139 C2.66973995,38.9250591 14.2158392,35.955792 17.8281324,35.1898345 L17.8281324,36.8825059 C17.8281324,39.029078 20.4380615,40.6650118 24.0314421,40.9392435 L24.0314421,46.0267139 Z M19.7193853,36.8825059 L19.7193853,36.8541371 L19.7193853,33.6200946 C21.291253,34.3490544 23.0082742,34.7112293 24.7406619,34.6791962 L25.2134752,34.6791962 C26.9458629,34.7112293 28.6628842,34.3490544 30.2347518,33.6200946 L30.2347518,36.8825059 C30.2347518,37.7808511 28.1827423,39.0763593 24.9770686,39.0763593 C21.7713948,39.0763593 19.7193853,37.7808511 19.7193853,36.8825059 Z M25.922695,46.0550827 L25.922695,40.9297872 C29.5160757,40.6839243 32.1260047,39.0385343 32.1260047,36.8730496 L32.1260047,35.2182033 C35.7666667,35.9747045 47.2560284,38.9439716 48.0314421,46.0550827 L25.922695,46.0550827 Z" id="Shape"></path>
                    </g>
                </g>
            </g>
        </g>
    </g>
</svg>